<?xml version="1.0" standalone="no"?>
<!DOCTYPE svg PUBLIC "-//W3C//DTD SVG 20010904//EN"
 "http://www.w3.org/TR/2001/REC-SVG-20010904/DTD/svg10.dtd">
<svg version="1.0" xmlns="http://www.w3.org/2000/svg"
 width="300.000000pt" height="168.000000pt" viewBox="0 0 300.000000 168.000000"
 preserveAspectRatio="xMidYMid meet">

<g transform="translate(0.000000,168.000000) scale(0.100000,-0.100000)"
fill="#000000" stroke="none">
<path d="M753 761 c-101 -73 -91 -230 19 -287 63 -32 156 -15 205 38 34 37 43
72 43 179 l0 99 -113 0 c-110 0 -115 -1 -154 -29z"/>
<path d="M1220 783 c-28 -11 -64 -44 -84 -76 -20 -30 -21 -49 -24 -287 -3
-249 -2 -256 20 -299 39 -75 101 -105 186 -89 53 9 84 32 112 80 20 36 21 48
18 307 -3 254 -4 271 -24 297 -37 50 -70 68 -131 71 -32 1 -65 0 -73 -4z"/>
</g>
</svg>
